<svg width="159" height="240" viewBox="0 0 159 240" fill="none" xmlns="http://www.w3.org/2000/svg">
<path d="M78.6667 6C78.6667 8.94552 81.0545 11.3333 84 11.3333C86.9455 11.3333 89.3333 8.94552 89.3333 6C89.3333 3.05448 86.9455 0.666667 84 0.666667C81.0545 0.666667 78.6667 3.05448 78.6667 6ZM157.5 6H158.5V5H157.5V6ZM157.5 162L158.029 162.848L158.5 162.555V162H157.5ZM36.5 237.5L36.5286 238.5L36.7995 238.492L37.0294 238.348L36.5 237.5ZM1.47144 237.5L0.471848 237.529L0.528968 239.528L1.52856 239.5L1.47144 237.5ZM4.44523 239.416L5.44482 239.388L5.3877 237.389L4.38811 237.417L4.44523 239.416ZM10.2214 237.25L9.22185 237.279L9.27897 239.278L10.2786 239.25L10.2214 237.25ZM16.1119 239.083L17.1115 239.054L17.0544 237.055L16.0548 237.084L16.1119 239.083ZM21.8881 236.917L20.8885 236.946L20.9456 238.945L21.9452 238.916L21.8881 236.917ZM27.7786 238.75L28.7782 238.721L28.721 236.722L27.7214 236.75L27.7786 238.75ZM33.5548 236.584L32.5552 236.612L32.6123 238.611L33.6119 238.583L33.5548 236.584ZM40.0544 236.461L40.9028 235.932L39.844 234.235L38.9956 234.764L40.0544 236.461ZM45.0456 230.989L44.1972 231.518L45.256 233.215L46.1044 232.686L45.0456 230.989ZM52.1544 228.911L53.0028 228.382L51.944 226.685L51.0956 227.214L52.1544 228.911ZM57.1456 223.439L56.2972 223.968L57.356 225.665L58.2044 225.136L57.1456 223.439ZM64.2544 221.361L65.1028 220.832L64.044 219.135L63.1956 219.664L64.2544 221.361ZM69.2456 215.889L68.3972 216.418L69.456 218.115L70.3044 217.586L69.2456 215.889ZM76.3544 213.811L77.2028 213.282L76.144 211.585L75.2956 212.114L76.3544 213.811ZM81.3456 208.339L80.4972 208.868L81.556 210.565L82.4044 210.036L81.3456 208.339ZM88.4544 206.261L89.3028 205.732L88.244 204.035L87.3956 204.564L88.4544 206.261ZM93.4456 200.789L92.5972 201.318L93.656 203.015L94.5044 202.486L93.4456 200.789ZM100.554 198.711L101.403 198.182L100.344 196.485L99.4956 197.014L100.554 198.711ZM105.546 193.239L104.697 193.768L105.756 195.465L106.604 194.936L105.546 193.239ZM112.654 191.161L113.503 190.632L112.444 188.935L111.596 189.464L112.654 191.161ZM117.646 185.689L116.797 186.218L117.856 187.915L118.704 187.386L117.646 185.689ZM124.754 183.611L125.603 183.082L124.544 181.385L123.696 181.914L124.754 183.611ZM129.746 178.139L128.897 178.668L129.956 180.365L130.804 179.836L129.746 178.139ZM136.854 176.061L137.703 175.532L136.644 173.835L135.796 174.364L136.854 176.061ZM141.846 170.589L140.997 171.118L142.056 172.815L142.904 172.286L141.846 170.589ZM148.954 168.511L149.803 167.982L148.744 166.285L147.896 166.814L148.954 168.511ZM153.946 163.039L153.097 163.568L154.156 165.265L155.004 164.736L153.946 163.039ZM158.5 158.455V157.455H156.5V158.455H158.5ZM156.5 151.364V152.364H158.5V151.364H156.5ZM158.5 144.273V143.273H156.5V144.273H158.5ZM156.5 137.182V138.182H158.5V137.182H156.5ZM158.5 130.091V129.091H156.5V130.091H158.5ZM156.5 123V124H158.5V123H156.5ZM158.5 115.909V114.909H156.5V115.909H158.5ZM156.5 108.818V109.818H158.5V108.818H156.5ZM158.5 101.727V100.727H156.5V101.727H158.5ZM156.5 94.6364V95.6364H158.5V94.6364H156.5ZM158.5 87.5455V86.5455H156.5V87.5455H158.5ZM156.5 80.4545V81.4545H158.5V80.4545H156.5ZM158.5 73.3636V72.3636H156.5V73.3636H158.5ZM156.5 66.2727V67.2727H158.5V66.2727H156.5ZM158.5 59.1818V58.1818H156.5V59.1818H158.5ZM156.5 52.0909V53.0909H158.5V52.0909H156.5ZM158.5 45V44H156.5V45H158.5ZM156.5 37.9091V38.9091H158.5V37.9091H156.5ZM158.5 30.8182V29.8182H156.5V30.8182H158.5ZM156.5 23.7272V24.7272H158.5V23.7272H156.5ZM158.5 16.6363V15.6363H156.5V16.6363H158.5ZM156.5 9.54542V10.5454H158.5V9.54542H156.5ZM153.825 5H152.825V7H153.825V5ZM146.475 7H147.475V5H146.475V7ZM139.125 5H138.125V7H139.125V5ZM131.775 7H132.775V5H131.775V7ZM124.425 5H123.425V7H124.425V5ZM117.075 7H118.075V5H117.075V7ZM109.725 5H108.725V7H109.725V5ZM102.375 7H103.375V5H102.375V7ZM95.025 5H94.025V7H95.025V5ZM87.675 7H88.675V5H87.675V7ZM1.52856 239.5L4.44523 239.416L4.38811 237.417L1.47144 237.5L1.52856 239.5ZM10.2786 239.25L16.1119 239.083L16.0548 237.084L10.2214 237.25L10.2786 239.25ZM21.9452 238.916L27.7786 238.75L27.7214 236.75L21.8881 236.917L21.9452 238.916ZM33.6119 238.583L36.5286 238.5L36.4714 236.5L33.5548 236.584L33.6119 238.583ZM37.0294 238.348L40.0544 236.461L38.9956 234.764L35.9706 236.652L37.0294 238.348ZM46.1044 232.686L52.1544 228.911L51.0956 227.214L45.0456 230.989L46.1044 232.686ZM58.2044 225.136L64.2544 221.361L63.1956 219.664L57.1456 223.439L58.2044 225.136ZM70.3044 217.586L76.3544 213.811L75.2956 212.114L69.2456 215.889L70.3044 217.586ZM82.4044 210.036L88.4544 206.261L87.3956 204.564L81.3456 208.339L82.4044 210.036ZM94.5044 202.486L100.554 198.711L99.4956 197.014L93.4456 200.789L94.5044 202.486ZM106.604 194.936L112.654 191.161L111.596 189.464L105.546 193.239L106.604 194.936ZM118.704 187.386L124.754 183.611L123.696 181.914L117.646 185.689L118.704 187.386ZM130.804 179.836L136.854 176.061L135.796 174.364L129.746 178.139L130.804 179.836ZM142.904 172.286L148.954 168.511L147.896 166.814L141.846 170.589L142.904 172.286ZM155.004 164.736L158.029 162.848L156.971 161.152L153.946 163.039L155.004 164.736ZM158.5 162V158.455H156.5V162H158.5ZM158.5 151.364V144.273H156.5V151.364H158.5ZM158.5 137.182V130.091H156.5V137.182H158.5ZM158.5 123V115.909H156.5V123H158.5ZM158.5 108.818V101.727H156.5V108.818H158.5ZM158.5 94.6364V87.5455H156.5V94.6364H158.5ZM158.5 80.4545V73.3636H156.5V80.4545H158.5ZM158.5 66.2727V59.1818H156.5V66.2727H158.5ZM158.5 52.0909V45H156.5V52.0909H158.5ZM158.5 37.9091V30.8182H156.5V37.9091H158.5ZM158.5 23.7272V16.6363H156.5V23.7272H158.5ZM158.5 9.54542V6H156.5V9.54542H158.5ZM157.5 5H153.825V7H157.5V5ZM146.475 5H139.125V7H146.475V5ZM131.775 5H124.425V7H131.775V5ZM117.075 5H109.725V7H117.075V5ZM102.375 5H95.025V7H102.375V5ZM87.675 5H84V7H87.675V5Z" fill="black"/>
</svg>
