<svg width="25" height="24" viewBox="0 0 25 24" fill="none" xmlns="http://www.w3.org/2000/svg">
<path d="M2 3H4.25L7.69531 15.4012C7.78299 15.7171 7.97171 15.9955 8.23261 16.1939C8.49351 16.3924 8.81222 16.4999 9.14 16.5H18.4062C18.7342 16.5001 19.0531 16.3927 19.3142 16.1942C19.5753 15.9958 19.7642 15.7172 19.8519 15.4012L22.25 6.75H5.29156" stroke="black" stroke-width="1.5" stroke-linecap="round" stroke-linejoin="round"/>
<path d="M10 20.25C10 20.9404 9.44036 21.5 8.75 21.5C8.05964 21.5 7.5 20.9404 7.5 20.25C7.5 19.5596 8.05964 19 8.75 19C9.44036 19 10 19.5596 10 20.25Z" fill="black" stroke="black" stroke-width="0.125"/>
<path d="M19.75 20.25C19.75 20.9404 19.1904 21.5 18.5 21.5C17.8096 21.5 17.25 20.9404 17.25 20.25C17.25 19.5596 17.8096 19 18.5 19C19.1904 19 19.75 19.5596 19.75 20.25Z" fill="black" stroke="black" stroke-width="0.125"/>
</svg>
