<svg width="29" height="28" viewBox="0 0 29 28" fill="none" xmlns="http://www.w3.org/2000/svg">
<path d="M7.47815 21.8061C8.13649 20.5094 9.14104 19.4203 10.3805 18.6595C11.6199 17.8987 13.0458 17.496 14.5 17.496C15.9543 17.496 17.3802 17.8987 18.6196 18.6595C19.859 19.4203 20.8636 20.5094 21.5219 21.8061" stroke="black" stroke-width="1.5" stroke-linecap="round" stroke-linejoin="round"/>
<path d="M14.5 24.5C20.299 24.5 25 19.799 25 14C25 8.20101 20.299 3.5 14.5 3.5C8.70101 3.5 4 8.20101 4 14C4 19.799 8.70101 24.5 14.5 24.5Z" stroke="black" stroke-width="1.5" stroke-linecap="round" stroke-linejoin="round"/>
<path d="M14.5 17.5C16.9162 17.5 18.875 15.5412 18.875 13.125C18.875 10.7088 16.9162 8.75 14.5 8.75C12.0838 8.75 10.125 10.7088 10.125 13.125C10.125 15.5412 12.0838 17.5 14.5 17.5Z" stroke="black" stroke-width="1.5" stroke-linecap="round" stroke-linejoin="round"/>
</svg>
